{
    "asset" : {
        "generator" : "Khronos glTF Blender I/O v1.1.46",
        "version" : "2.0"
    },
    "extensionsUsed" : [
        "KHR_lights_punctual"
    ],
    "extensionsRequired" : [
        "KHR_lights_punctual"
    ],
    "extensions" : {
        "KHR_lights_punctual" : {
            "lights" : [
                {
                    "color" : [
                        1,
                        1,
                        1
                    ],
                    "intensity" : 100,
                    "type" : "point",
                    "name" : "Spot"
                }
            ]
        }
    },
    "scene" : 0,
    "scenes" : [
        {
            "extras" : {
                "glTF2ExportSettings" : {
                    "export_extras" : 1,
                    "export_format" : "GLTF_EMBEDDED",
                    "export_lights" : 1,
                    "export_tangents" : 1,
                    "export_yup" : 0
                }
            },
            "name" : "Scene",
            "nodes" : [
                2,
                3,
                4,
                7,
                8
            ]
        }
    ],
    "nodes" : [
        {
            "mesh" : 0,
            "name" : "collider_heart"
        },
        {
            "mesh" : 1,
            "name" : "mesh_heart"
        },
        {
            "children" : [
                0,
                1
            ],
            "name" : "heart"
        },
        {
            "camera" : 0,
            "name" : "Camera",
            "translation" : [
                0.06221818923950195,
                -6.202050685882568,
                1.7973263263702393
            ]
        },
        {
            "extensions" : {
                "KHR_lights_punctual" : {
                    "light" : 0
                }
            },
            "name" : "Lamp",
            "rotation" : [
                0.10255306214094162,
                0.22137431800365448,
                0.7677398920059204,
                0.5924961566925049
            ],
            "translation" : [
                0.9838871955871582,
                -6.0171427726745605,
                3.7993688583374023
            ]
        },
        {
            "mesh" : 2,
            "name" : "collider_brkheart"
        },
        {
            "mesh" : 3,
            "name" : "mesh_brkheart",
            "translation" : [
                -0.00747645040974021,
                0,
                0
            ]
        },
        {
            "children" : [
                5,
                6
            ],
            "name" : "brokenheart"
        },
        {
            "mesh" : 4,
            "name" : "watermelon",
            "scale" : [
                2.005260705947876,
                1.0320990085601807,
                1.0320990085601807
            ]
        }
    ],
    "cameras" : [
        {
            "name" : "Camera",
            "perspective" : {
                "yfov" : 0.736261585933955,
                "zfar" : 100,
                "znear" : 0.10000000149011612
            },
            "type" : "perspective"
        }
    ],
    "animations" : [
        {
            "channels" : [
                {
                    "sampler" : 0,
                    "target" : {
                        "node" : 3,
                        "path" : "translation"
                    }
                },
                {
                    "sampler" : 1,
                    "target" : {
                        "node" : 3,
                        "path" : "rotation"
                    }
                },
                {
                    "sampler" : 2,
                    "target" : {
                        "node" : 3,
                        "path" : "scale"
                    }
                }
            ],
            "name" : "CDA:ObIpo.007",
            "samplers" : [
                {
                    "input" : 21,
                    "interpolation" : "STEP",
                    "output" : 22
                },
                {
                    "input" : 21,
                    "interpolation" : "STEP",
                    "output" : 23
                },
                {
                    "input" : 21,
                    "interpolation" : "STEP",
                    "output" : 24
                }
            ]
        }
    ],
    "materials" : [
        {
            "doubleSided" : true,
            "name" : "Material",
            "pbrMetallicRoughness" : {}
        },
        {
            "doubleSided" : true,
            "name" : "Material.002",
            "pbrMetallicRoughness" : {}
        }
    ],
    "meshes" : [
        {
            "name" : "Sphere",
            "primitives" : [
                {
                    "attributes" : {
                        "POSITION" : 0,
                        "NORMAL" : 1
                    },
                    "indices" : 2
                }
            ]
        },
        {
            "name" : "Sphere.001",
            "primitives" : [
                {
                    "attributes" : {
                        "POSITION" : 3,
                        "NORMAL" : 4,
                        "TANGENT" : 5,
                        "TEXCOORD_0" : 6,
                        "TEXCOORD_1" : 7
                    },
                    "indices" : 8,
                    "material" : 0
                }
            ]
        },
        {
            "name" : "Sphere.004",
            "primitives" : [
                {
                    "attributes" : {
                        "POSITION" : 9,
                        "NORMAL" : 10
                    },
                    "indices" : 2
                }
            ]
        },
        {
            "name" : "Sphere.002",
            "primitives" : [
                {
                    "attributes" : {
                        "POSITION" : 11,
                        "NORMAL" : 12,
                        "TANGENT" : 13,
                        "TEXCOORD_0" : 14
                    },
                    "indices" : 15,
                    "material" : 0
                }
            ]
        },
        {
            "name" : "Sphere.003",
            "primitives" : [
                {
                    "attributes" : {
                        "POSITION" : 16,
                        "NORMAL" : 17,
                        "TANGENT" : 18,
                        "TEXCOORD_0" : 19
                    },
                    "indices" : 20,
                    "material" : 1
                }
            ]
        }
    ],
    "accessors" : [
        {
            "bufferView" : 0,
            "componentType" : 5126,
            "count" : 132,
            "max" : [
                1,
                0.866025447845459,
                1
            ],
            "min" : [
                -1.0000001192092896,
                -0.8660255670547485,
                -1
            ],
            "type" : "VEC3"
        },
        {
            "bufferView" : 1,
            "componentType" : 5126,
            "count" : 132,
            "type" : "VEC3"
        },
        {
            "bufferView" : 2,
            "componentType" : 5123,
            "count" : 180,
            "type" : "SCALAR"
        },
        {
            "bufferView" : 3,
            "componentType" : 5126,
            "count" : 306,
            "max" : [
                0.8339759707450867,
                0.5001946687698364,
                0.84675532579422
            ],
            "min" : [
                -0.8705570101737976,
                -0.5382018089294434,
                -0.9720730781555176
            ],
            "type" : "VEC3"
        },
        {
            "bufferView" : 4,
            "componentType" : 5126,
            "count" : 306,
            "type" : "VEC3"
        },
        {
            "bufferView" : 5,
            "componentType" : 5126,
            "count" : 306,
            "type" : "VEC4"
        },
        {
            "bufferView" : 6,
            "componentType" : 5126,
            "count" : 306,
            "type" : "VEC2"
        },
        {
            "bufferView" : 7,
            "componentType" : 5126,
            "count" : 306,
            "type" : "VEC2"
        },
        {
            "bufferView" : 8,
            "componentType" : 5123,
            "count" : 432,
            "type" : "SCALAR"
        },
        {
            "bufferView" : 9,
            "componentType" : 5126,
            "count" : 132,
            "max" : [
                1,
                0.866025447845459,
                1
            ],
            "min" : [
                -1.0000001192092896,
                -0.8660255670547485,
                -1
            ],
            "type" : "VEC3"
        },
        {
            "bufferView" : 10,
            "componentType" : 5126,
            "count" : 132,
            "type" : "VEC3"
        },
        {
            "bufferView" : 11,
            "componentType" : 5126,
            "count" : 390,
            "max" : [
                0.9431477785110474,
                0.5208290219306946,
                0.8117389678955078
            ],
            "min" : [
                -0.8726608753204346,
                -0.568717360496521,
                -0.9751917123794556
            ],
            "type" : "VEC3"
        },
        {
            "bufferView" : 12,
            "componentType" : 5126,
            "count" : 390,
            "type" : "VEC3"
        },
        {
            "bufferView" : 13,
            "componentType" : 5126,
            "count" : 390,
            "type" : "VEC4"
        },
        {
            "bufferView" : 14,
            "componentType" : 5126,
            "count" : 390,
            "type" : "VEC2"
        },
        {
            "bufferView" : 15,
            "componentType" : 5123,
            "count" : 1980,
            "type" : "SCALAR"
        },
        {
            "bufferView" : 16,
            "componentType" : 5126,
            "count" : 158,
            "max" : [
                0.9072480201721191,
                1.09197998046875,
                1.2109166383743286
            ],
            "min" : [
                -0.9072480201721191,
                -1.0919800996780396,
                -1.2109166383743286
            ],
            "type" : "VEC3"
        },
        {
            "bufferView" : 17,
            "componentType" : 5126,
            "count" : 158,
            "type" : "VEC3"
        },
        {
            "bufferView" : 18,
            "componentType" : 5126,
            "count" : 158,
            "type" : "VEC4"
        },
        {
            "bufferView" : 19,
            "componentType" : 5126,
            "count" : 158,
            "type" : "VEC2"
        },
        {
            "bufferView" : 20,
            "componentType" : 5123,
            "count" : 792,
            "type" : "SCALAR"
        },
        {
            "bufferView" : 21,
            "componentType" : 5126,
            "count" : 1,
            "max" : [
                0.041666666666666664
            ],
            "min" : [
                0.041666666666666664
            ],
            "type" : "SCALAR"
        },
        {
            "bufferView" : 22,
            "componentType" : 5126,
            "count" : 1,
            "type" : "VEC3"
        },
        {
            "bufferView" : 23,
            "componentType" : 5126,
            "count" : 1,
            "type" : "VEC4"
        },
        {
            "bufferView" : 24,
            "componentType" : 5126,
            "count" : 1,
            "type" : "VEC3"
        }
    ],
    "bufferViews" : [
        {
            "buffer" : 0,
            "byteLength" : 1584,
            "byteOffset" : 0
        },
        {
            "buffer" : 0,
            "byteLength" : 1584,
            "byteOffset" : 1584
        },
        {
            "buffer" : 0,
            "byteLength" : 360,
            "byteOffset" : 3168
        },
        {
            "buffer" : 0,
            "byteLength" : 3672,
            "byteOffset" : 3528
        },
        {
            "buffer" : 0,
            "byteLength" : 3672,
            "byteOffset" : 7200
        },
        {
            "buffer" : 0,
            "byteLength" : 4896,
            "byteOffset" : 10872
        },
        {
            "buffer" : 0,
            "byteLength" : 2448,
            "byteOffset" : 15768
        },
        {
            "buffer" : 0,
            "byteLength" : 2448,
            "byteOffset" : 18216
        },
        {
            "buffer" : 0,
            "byteLength" : 864,
            "byteOffset" : 20664
        },
        {
            "buffer" : 0,
            "byteLength" : 1584,
            "byteOffset" : 21528
        },
        {
            "buffer" : 0,
            "byteLength" : 1584,
            "byteOffset" : 23112
        },
        {
            "buffer" : 0,
            "byteLength" : 4680,
            "byteOffset" : 24696
        },
        {
            "buffer" : 0,
            "byteLength" : 4680,
            "byteOffset" : 29376
        },
        {
            "buffer" : 0,
            "byteLength" : 6240,
            "byteOffset" : 34056
        },
        {
            "buffer" : 0,
            "byteLength" : 3120,
            "byteOffset" : 40296
        },
        {
            "buffer" : 0,
            "byteLength" : 3960,
            "byteOffset" : 43416
        },
        {
            "buffer" : 0,
            "byteLength" : 1896,
            "byteOffset" : 47376
        },
        {
            "buffer" : 0,
            "byteLength" : 1896,
            "byteOffset" : 49272
        },
        {
            "buffer" : 0,
            "byteLength" : 2528,
            "byteOffset" : 51168
        },
        {
            "buffer" : 0,
            "byteLength" : 1264,
            "byteOffset" : 53696
        },
        {
            "buffer" : 0,
            "byteLength" : 1584,
            "byteOffset" : 54960
        },
        {
            "buffer" : 0,
            "byteLength" : 4,
            "byteOffset" : 56544
        },
        {
            "buffer" : 0,
            "byteLength" : 12,
            "byteOffset" : 56548
        },
        {
            "buffer" : 0,
            "byteLength" : 16,
            "byteOffset" : 56560
        },
        {
            "buffer" : 0,
            "byteLength" : 12,
            "byteOffset" : 56576
        }
    ],
    "buffers" : [
        {
            "byteLength" : 56588,
            "uri" : "data:application/octet-stream;base64,"
        }
    ]
}
