{
    "asset" : {
        "generator" : "Khronos glTF Blender I/O v1.1.46",
        "version" : "2.0"
    },
    "extensionsUsed" : [
        "KHR_lights_punctual"
    ],
    "extensionsRequired" : [
        "KHR_lights_punctual"
    ],
    "extensions" : {
        "KHR_lights_punctual" : {
            "lights" : [
                {
                    "color" : [
                        1,
                        0.47640201449394226,
                        0.14110851287841797
                    ],
                    "intensity" : 10,
                    "type" : "directional",
                    "name" : "Light"
                }
            ]
        }
    },
    "scene" : 0,
    "scenes" : [
        {
            "name" : "Scene",
            "nodes" : [
                0,
                1,
                2,
                3
            ]
        }
    ],
    "nodes" : [
        {
            "extensions" : {
                "KHR_lights_punctual" : {
                    "light" : 0
                }
            },
            "name" : "Light",
            "rotation" : [
                0.16362789273262024,
                -0.612049400806427,
                0.5780164003372192,
                0.5143135786056519
            ],
            "translation" : [
                -7.756319046020508,
                -20.415674209594727,
                6.839315891265869
            ]
        },
        {
            "camera" : 0,
            "name" : "Camera",
            "rotation" : [
                0.483536034822464,
                0.20870360732078552,
                0.33687159419059753,
                0.7804827094078064
            ],
            "translation" : [
                7.358891487121582,
                -6.925790786743164,
                4.958309173583984
            ]
        },
        {
            "mesh" : 0,
            "name" : "Icosphere",
            "scale" : [
                7.530472755432129,
                7.530472755432129,
                7.530472755432129
            ]
        },
        {
            "mesh" : 1,
            "name" : "Plane",
            "scale" : [
                -9.010637283325195,
                -9.010637283325195,
                -9.010637283325195
            ],
            "translation" : [
                0.4460776150226593,
                -1.1246923208236694,
                0.008121635764837265
            ]
        }
    ],
    "cameras" : [
        {
            "name" : "Camera",
            "perspective" : {
                "yfov" : 0.39959652046304894,
                "zfar" : 100,
                "znear" : 0.10000000149011612
            },
            "type" : "perspective"
        }
    ],
    "materials" : [
        {
            "doubleSided" : true,
            "emissiveFactor" : [
                0,
                0,
                0
            ],
            "name" : "Material.002",
            "pbrMetallicRoughness" : {
                "metallicFactor" : 0,
                "roughnessFactor" : 0.5
            }
        },
        {
            "alphaMode" : "BLEND",
            "doubleSided" : true,
            "emissiveFactor" : [
                0,
                0,
                0
            ],
            "name" : "Material.001",
            "pbrMetallicRoughness" : {
                "baseColorFactor" : [
                    0.38509684801101685,
                    0.7822915315628052,
                    0.8000000715255737,
                    1
                ],
                "metallicFactor" : 0,
                "roughnessFactor" : 0.5
            }
        }
    ],
    "meshes" : [
        {
            "name" : "Icosphere.001",
            "primitives" : [
                {
                    "attributes" : {
                        "POSITION" : 0,
                        "NORMAL" : 1,
                        "COLOR_0" : 2
                    },
                    "indices" : 3,
                    "material" : 0
                }
            ]
        },
        {
            "name" : "Plane",
            "primitives" : [
                {
                    "attributes" : {
                        "POSITION" : 4,
                        "NORMAL" : 5
                    },
                    "indices" : 6,
                    "material" : 1
                }
            ]
        }
    ],
    "accessors" : [
        {
            "bufferView" : 0,
            "componentType" : 5126,
            "count" : 5262,
            "max" : [
                1.0288615226745605,
                1.0294387340545654,
                0.527606725692749
            ],
            "min" : [
                -1.029423713684082,
                -1.0123484134674072,
                -1.0102332830429077
            ],
            "type" : "VEC3"
        },
        {
            "bufferView" : 1,
            "componentType" : 5126,
            "count" : 5262,
            "type" : "VEC3"
        },
        {
            "bufferView" : 2,
            "componentType" : 5126,
            "count" : 5262,
            "type" : "VEC4"
        },
        {
            "bufferView" : 3,
            "componentType" : 5123,
            "count" : 5262,
            "type" : "SCALAR"
        },
        {
            "bufferView" : 4,
            "componentType" : 5126,
            "count" : 138,
            "max" : [
                0.9925825595855713,
                0.6566624641418457,
                0.07349783182144165
            ],
            "min" : [
                -0.7417073845863342,
                -0.9189102053642273,
                -0.14639350771903992
            ],
            "type" : "VEC3"
        },
        {
            "bufferView" : 5,
            "componentType" : 5126,
            "count" : 138,
            "type" : "VEC3"
        },
        {
            "bufferView" : 6,
            "componentType" : 5123,
            "count" : 267,
            "type" : "SCALAR"
        }
    ],
    "bufferViews" : [
        {
            "buffer" : 0,
            "byteLength" : 63144,
            "byteOffset" : 0
        },
        {
            "buffer" : 0,
            "byteLength" : 63144,
            "byteOffset" : 63144
        },
        {
            "buffer" : 0,
            "byteLength" : 84192,
            "byteOffset" : 126288
        },
        {
            "buffer" : 0,
            "byteLength" : 10524,
            "byteOffset" : 210480
        },
        {
            "buffer" : 0,
            "byteLength" : 1656,
            "byteOffset" : 221004
        },
        {
            "buffer" : 0,
            "byteLength" : 1656,
            "byteOffset" : 222660
        },
        {
            "buffer" : 0,
            "byteLength" : 534,
            "byteOffset" : 224316
        }
    ],
    "buffers" : [
        {
            "byteLength" : 224852,
            "uri" : "data:application/octet-stream;base64,"
        }
    ]
}
